<svg xmlns="http://www.w3.org/2000/svg" width="71" height="100" fill="none" viewBox="0 0 71 100"><g clip-path="url(#clip0_28_2264)"><path fill="#e44d26" d="M70.877 19.603 64.43 91.725l-28.974 8.022-28.894-8.011-6.44-72.133z"/><path fill="#f16529" d="m35.5 93.615 23.413-6.483 5.508-61.631H35.5z"/><path fill="#ebebeb" d="M22.97 43.195H35.5v-8.847H13.29l.211 2.373 2.178 24.38H35.5v-8.847H23.78zm1.996 22.33h-8.892l1.241 13.89 18.144 5.03.041-.01V75.23l-.039.01-9.864-2.66z"/><path fill="#000" d="M6.706 0h4.501v4.442h4.118V0h4.502v13.451h-4.502V8.947h-4.117v4.504H6.706zm19.04 4.46h-3.962V0h12.429v4.46h-3.965v8.991h-4.501zM36.185 0h4.694l2.887 4.726L46.65 0h4.696v13.451h-4.483V6.784l-3.097 4.783h-.078l-3.099-4.783v6.667h-4.404zm17.4 0h4.503v9.005h6.33v4.446H53.585z"/><path fill="#fff" d="M35.47 61.1h10.907l-1.029 11.474-9.879 2.663v9.204l18.159-5.026.133-1.495 2.082-23.29.216-2.376h-20.59zm0-17.927v.021h21.395l.177-1.988.404-4.485.212-2.373H35.469z"/></g><defs><clipPath id="clip0_28_2264"><path fill="#fff" d="M0 0h71v100H0z"/></clipPath></defs></svg>