<svg xmlns="http://www.w3.org/2000/svg" width="60" height="90" fill="none" viewBox="0 0 60 90"><g clip-path="url(#clip0_28_2279)"><path fill="#0acf83" d="M15 90c8.28 0 15-6.72 15-15V60H15C6.72 60 0 66.72 0 75s6.72 15 15 15"/><path fill="#a259ff" d="M0 45c0-8.28 6.72-15 15-15h15v30H15C6.72 60 0 53.28 0 45"/><path fill="#f24e1e" d="M0 15C0 6.72 6.72 0 15 0h15v30H15C6.72 30 0 23.28 0 15"/><path fill="#ff7262" d="M30 0h15c8.28 0 15 6.72 15 15s-6.72 15-15 15H30z"/><path fill="#1abcfe" d="M60 45c0 8.28-6.72 15-15 15s-15-6.72-15-15 6.72-15 15-15 15 6.72 15 15"/></g><defs><clipPath id="clip0_28_2279"><path fill="#fff" d="M0 0h60v90H0z"/></clipPath></defs></svg>