<svg width="40" height="29" viewBox="0 0 40 29" fill="none" xmlns="http://www.w3.org/2000/svg">
<path d="M35.1364 0.603452C35.1364 0.603452 30.3091 0 19.9418 0C9.91091 0 4.86182 0.603452 4.86182 0.603452C3.57222 0.603931 2.3356 1.11334 1.42388 2.01965C0.512168 2.92597 2.49895e-07 4.155 3.40006e-07 5.43648V23.5653C-0.000238472 24.2 0.125327 24.8285 0.369527 25.415C0.613727 26.0014 0.971779 26.5344 1.42324 26.9833C1.8747 27.4323 2.41073 27.7885 3.00072 28.0316C3.59072 28.2747 4.22312 28.3999 4.86182 28.4002C4.86182 28.4002 9.55636 29 19.9418 29C30.3218 29 35.1364 28.4002 35.1364 28.4002C35.7754 28.4006 36.4082 28.2759 36.9986 28.0331C37.589 27.7902 38.1254 27.4341 38.5772 26.985C39.0289 26.5359 39.3871 26.0028 39.6313 25.416C39.8754 24.8292 40.0007 24.2003 40 23.5653V5.43287C40 4.79836 39.8742 4.17006 39.6297 3.5839C39.3852 2.99773 39.0269 2.46518 38.5752 2.01668C38.1236 1.56818 37.5874 1.21252 36.9973 0.970032C36.4073 0.727544 35.7749 0.602977 35.1364 0.603452ZM14.6564 21.6809V7.32633L27.6273 14.4991L14.6564 21.6809Z" fill="white"/>
</svg>
