<svg xmlns="http://www.w3.org/2000/svg" width="100" height="100" fill="none" viewBox="0 0 100 100"><path fill="#000" d="M50 0C22.45 0 0 22.45 0 50s22.45 50 50 50 50-22.45 50-50S77.55 0 50 0M5.05 50c0-6.5 1.4-12.7 3.9-18.3L30.4 90.45C15.4 83.15 5.05 67.8 5.05 50M50 94.95c-4.4 0-8.65-.65-12.7-1.85l13.5-39.2 13.8 37.85c.1.2.2.45.3.6-4.65 1.7-9.65 2.6-14.9 2.6m6.2-66.05c2.7-.15 5.15-.45 5.15-.45 2.4-.3 2.15-3.85-.3-3.7 0 0-7.3.55-12 .55-4.4 0-11.85-.55-11.85-.55-2.4-.1-2.7 3.6-.25 3.75 0 0 2.3.3 4.7.45l7 19.2-9.85 29.5L22.45 28.9c2.7-.1 5.15-.4 5.15-.4 2.4-.3 2.15-3.85-.3-3.7 0 0-7.3.55-12 .55-.85 0-1.85 0-2.9-.05C20.5 13.1 34.3 5.05 50 5.05c11.7 0 22.35 4.45 30.35 11.8-.2 0-.4-.05-.6-.05-4.4 0-7.55 3.85-7.55 8 0 3.7 2.15 6.85 4.4 10.55 1.7 3 3.7 6.85 3.7 12.4 0 3.85-1.5 8.3-3.4 14.55l-4.5 15zm33.25-.45a44.95 44.95 0 0 1-16.85 60.4l13.75-39.7c2.55-6.4 3.4-11.55 3.4-16.1 0-1.65-.1-3.2-.3-4.6"/></svg>