<svg xmlns="http://www.w3.org/2000/svg" width="86" height="86" fill="none" viewBox="0 0 86 86"><path fill="#f0db4f" d="M0 1h85v85H0z"/><path fill="#323330" d="M78.17 64.995c-.615-3.838-3.118-7.06-10.529-10.066-2.575-1.183-5.445-2.03-6.3-3.981-.304-1.136-.344-1.776-.152-2.463.552-2.23 3.214-2.926 5.325-2.286 1.359.455 2.645 1.503 3.422 3.174 3.629-2.35 3.621-2.335 6.156-3.95-.928-1.439-1.423-2.102-2.03-2.718-2.183-2.438-5.158-3.694-9.915-3.598l-2.478.32c-2.374.6-4.637 1.847-5.964 3.518-3.981 4.518-2.846 12.424 1.999 15.678 4.773 3.583 11.785 4.398 12.68 7.748.872 4.1-3.014 5.428-6.876 4.957-2.846-.592-4.429-2.039-6.14-4.67-3.15 1.824-3.15 1.824-6.388 3.686.768 1.679 1.575 2.439 2.862 3.894 6.093 6.18 21.339 5.876 24.073-3.478.111-.321.848-2.463.256-5.766m-31.5-25.393h-7.867l-.032 20.34c0 4.325.223 8.29-.48 9.506-1.151 2.39-4.133 2.094-5.493 1.63-1.383-.68-2.087-1.646-2.902-3.013-.223-.392-.391-.696-.448-.72l-6.396 3.917c1.064 2.183 2.63 4.078 4.637 5.309 2.998 1.8 7.028 2.35 11.242 1.383 2.742-.798 5.108-2.453 6.347-4.972 1.791-3.302 1.407-7.3 1.391-11.72.04-7.213 0-14.424 0-21.66"/></svg>