<svg xmlns="http://www.w3.org/2000/svg" width="71" height="100" fill="none" viewBox="0 0 71 100"><g clip-path="url(#clip0_28_2270)"><path fill="#264de4" d="M35.457 99.747 6.563 91.736.122 19.603h70.754L64.43 91.725z"/><path fill="#2965f1" d="m58.913 87.132 5.508-61.631H35.5v68.114z"/><path fill="#ebebeb" d="m14.885 52.254.793 8.847H35.5v-8.847zM13.29 34.348l.805 8.846H35.5v-8.846zM35.5 75.23l-.039.01-9.864-2.66-.631-7.056h-8.892l1.241 13.891 18.144 5.03.041-.01z"/><path fill="#000" d="M16.775 0h10.728v4.48H21.26v4.482h6.242v4.48H16.775zm12.873 0h10.728v3.896h-6.241v.78h6.241v8.961H29.65V9.546h6.241v-.78h-6.242zm12.874 0H53.25v3.896h-6.242v.78h6.242v8.961H42.522V9.546h6.242v-.78h-6.242z"/><path fill="#fff" d="m56.059 52.254 1.599-17.906H35.469v8.846H47.95l-.806 9.06H35.47V61.1h10.908l-1.029 11.473-9.879 2.663v9.204l18.159-5.026.133-1.495 2.082-23.29z"/></g><defs><clipPath id="clip0_28_2270"><path fill="#fff" d="M0 0h71v100H0z"/></clipPath></defs></svg>