<svg xmlns="http://www.w3.org/2000/svg" width="93" height="70" fill="none" viewBox="0 0 93 70"><path fill="#cb6699" fill-rule="evenodd" d="M0 29.19c0 .523.153.87.24 1.205.56 2.187 1.763 4.063 3.191 5.775 2.034 2.439 4.525 4.402 7.077 6.249 2.213 1.601 4.472 3.167 6.694 4.756.381.273.742.587 1.156.921-.356.194-.653.365-.96.522-2.933 1.497-5.755 3.175-8.355 5.208-1.568 1.225-3.083 2.528-4.154 4.23-1.722 2.737-2.331 5.653-1.048 8.767.375.91.947 1.695 1.754 2.276.261.188.554.374.86.447.784.186 1.583.307 2.376.454l2.246-.001c2.485-.223 4.746-1.08 6.79-2.5 3.194-2.218 5.346-5.192 6.27-9.01.673-2.774.7-5.552-.092-8.314a9 9 0 0 0-.262-.756c-.096-.248-.21-.49-.343-.799l5.093-2.947.076.065c-.092.305-.19.61-.274.917-.605 2.225-1.008 4.488-.863 6.797.154 2.46.836 4.762 2.267 6.818 1.157 1.662 3.914 1.724 5.144.055.436-.592.859-1.212 1.177-1.873.83-1.726 1.599-3.482 2.392-5.226l.139-.32c-.057.827-.124 1.552-.154 2.278-.048 1.134.018 2.261.403 3.34.33.923.89 1.612 1.94 1.734.72.082 1.292-.249 1.82-.668a7.7 7.7 0 0 0 1.993-2.385c1.408-2.602 2.854-5.19 4.13-7.857 1.381-2.886 2.589-5.856 3.87-8.79l.213-.52c.303 1.197.514 2.37.903 3.481a33 33 0 0 0 1.62 3.77c.288.578.254.953-.145 1.438-1.67 2.028-3.313 4.08-4.957 6.13-.363.452-.726.913-1.029 1.407a2.8 2.8 0 0 0-.355 1.017c-.051.33.027.668.218.942s.48.463.806.527a7.1 7.1 0 0 0 2.006.144c2.294-.17 4.377-.98 6.219-2.353 2.385-1.779 3.151-4.206 2.574-7.083-.157-.78-.433-1.54-.702-2.291-.12-.34-.129-.577.091-.893 1.907-2.742 3.537-5.65 5.053-8.625.06-.117.121-.234.226-.359.491 2.572 1.23 5.05 2.555 7.3-.676.655-1.344 1.249-1.95 1.903-1.332 1.442-2.488 3.008-3.09 4.917-.26.823-.46 1.66-.344 2.538.18 1.365 1.29 2.252 2.625 1.941 2.855-.665 5.319-2.019 7.12-4.417 1.211-1.614 1.322-3.415.814-5.302-.139-.513-.304-1.018-.482-1.606.705-.22 1.391-.484 2.102-.647 3.688-.847 7.336-.7 10.89.641 2.074.783 3.75 2.093 4.745 4.153 1.214 2.52.543 4.91-1.817 6.501-.22.149-.471.266-.654.451a.65.65 0 0 0-.151.5c.015.092.256.206.394.205.776-.006 1.405-.415 2.008-.836 1.513-1.053 2.617-2.47 2.854-4.336l.047-.14-.057-1.215c-.023-.07.017-.14.012-.193-.322-2.717-1.764-4.824-3.861-6.476-2.43-1.912-5.299-2.7-8.333-2.824a18.7 18.7 0 0 0-7.233 1.12c-.664.243-1.323.53-1.991.8-.09-.163-.186-.32-.265-.481-.686-1.414-1.517-2.764-1.7-4.385-.131-1.151-.291-2.3-.02-3.439.262-1.095.603-2.172.923-3.252.166-.556.05-.867-.478-1.118a2.2 2.2 0 0 0-.582-.192 8.9 8.9 0 0 0-3.83.286c-.445.13-.768.381-.866.876-.057.284-.171.556-.251.836-.329 1.166-.561 2.353-1.092 3.463-1.328 2.784-2.845 5.464-4.398 8.123-.168.287-.345.57-.557.917-.545-1.148-1.126-2.178-1.303-3.386-.2-1.365-.356-2.729-.018-4.084.25-1.01.579-2.003.881-3 .143-.475.077-.724-.35-.973a2 2 0 0 0-.702-.275 8.6 8.6 0 0 0-3.965.327c-.403.131-.614.393-.737.81-.361 1.232-.67 2.493-1.177 3.664-2.054 4.741-4.168 9.458-6.28 14.173-.441.985-.957 1.936-1.454 2.894-.126.243-.31.457-.467.685-.126-.15-.175-.252-.174-.355.004-.606-.068-1.23.047-1.816q.529-2.659 1.168-5.292c.349-1.45.754-2.888 1.14-4.329.13-.482.131-.933-.213-1.339-.578-.679-1.787-.828-2.504-.305l-.317.18.061-.514c.151-1.102.182-2.2-.12-3.287-.374-1.354-1.334-2.133-2.73-2.09-.65.02-1.333.132-1.935.37-2.532 1-4.48 2.769-6.137 4.897a1.9 1.9 0 0 1-.561.488c-2.143 1.195-4.293 2.376-6.441 3.561l-2.392 1.32c-.642-.617-1.225-1.255-1.886-1.797-2.02-1.658-4.072-3.275-6.107-4.915-1.803-1.452-3.55-2.966-4.885-4.89-.994-1.431-1.635-2.997-1.697-4.767-.077-2.255.558-4.315 1.699-6.233 1.46-2.454 3.45-4.424 5.637-6.208 2.315-1.886 4.819-3.487 7.414-4.949 3.63-2.045 7.364-3.855 11.367-5.05 4.105-1.225 8.27-1.927 12.567-1.438 1.688.193 3.328.582 4.834 1.413 1.154.636 2.1 1.469 2.54 2.77.434 1.28.42 2.579.12 3.88-.612 2.634-2.045 4.805-3.849 6.746-2.958 3.18-6.567 5.346-10.63 6.777a29 29 0 0 1-7.233 1.553c-2.021.17-4-.01-5.914-.717-1.268-.47-2.371-1.187-3.259-2.227-.158-.187-.361-.389-.657-.214-.29.171-.34.449-.243.73.162.466.311.952.564 1.37.635 1.047 1.56 1.807 2.58 2.458 1.958 1.253 4.146 1.675 6.415 1.772 3.442.15 6.802-.367 10.113-1.297 4.728-1.327 8.84-3.67 12.136-7.368 2.745-3.079 4.706-6.553 5.126-10.749.205-2.047-.013-4.053-.966-5.922-1.033-2.024-2.676-3.529-4.64-4.566C50.026.878 46.938 0 43.752 0h-3.193C36.7 0 32.97 1.113 29.343 2.44a77 77 0 0 0-8.05 3.507c-5.691 2.861-10.991 6.312-15.344 11.057-2.17 2.364-4.005 4.972-5.062 8.043a31 31 0 0 0-.823 2.793m20.621 26.846c-.246 3.324-1.743 6.019-4.19 8.202-1.376 1.227-2.955 2.1-4.793 2.407-.667.111-1.349.138-1.996-.14-.922-.396-1.128-1.22-1.146-2.098-.028-1.398.459-2.662 1.126-3.865.871-1.569 2.148-2.765 3.512-3.881 2.148-1.76 4.479-3.25 6.865-4.656l.18-.074c.369 1.371.545 2.726.442 4.105M39.32 40.24c-.174 1.061-.392 2.124-.7 3.152-1.065 3.561-2.433 7.012-3.912 10.417-.273.63-.671 1.204-1.017 1.801q-.09.138-.21.25c-.428.425-.834.403-1.05-.154-.252-.647-.407-1.34-.54-2.025-.09-.46-.068-.943-.096-1.414.028-3.35 1.044-6.395 2.767-9.229.71-1.169 1.483-2.282 2.665-3.022a4.6 4.6 0 0 1 1.181-.526c.63-.178 1.017.115.912.75m12.714 16.3 4.57-5.369c.19 1.994-3.178 5.975-4.57 5.37m14.594-3.613c-.323.187-.675.32-1.006.493-.303.158-.403-.002-.412-.264a1.8 1.8 0 0 1 .07-.537c.616-2.19 1.752-4.06 3.442-5.58l.118-.062a4.94 4.94 0 0 1-2.212 5.95" clip-rule="evenodd"/></svg>