<svg xmlns="http://www.w3.org/2000/svg" width="62" height="50" fill="none" viewBox="0 0 62 50"><path fill="#fff" fill-rule="evenodd" d="M1.448 11Q0 14.43 0 18.571v.358q0 4.215 1.448 7.571 1.372 3.429 4.041 5.857 2.592 2.5 6.252 3.786c1.807.684 3.79 1.19 5.946 1.357L4.422 50h37.661q4.499 0 8.081-1.286 3.66-1.356 6.252-3.785A16.34 16.34 0 0 0 60.456 39q1.449-3.43 1.449-7.571v-.358q0-4.215-1.449-7.571-1.372-3.429-4.04-5.857-2.592-2.5-6.252-3.786c-1.807-.684-3.79-1.19-5.946-1.357L57.483 0H19.822q-4.5 0-8.081 1.286Q8.08 2.642 5.489 5.07A16.35 16.35 0 0 0 1.45 11m37.128 2.194h-1.233L25.552 24.306h3.19l-11.055 11.11s-1.369-.384-3.316-1.041c-2.258-.762-5.482-2.048-7.081-3.53a13.95 13.95 0 0 1-3.739-5.206q-1.34-2.985-1.34-6.73v-.318q0-3.682 1.34-6.73a14.5 14.5 0 0 1 3.739-5.27q2.398-2.158 5.785-3.365 3.315-1.143 7.477-1.143H50.85zm-2.223 12.5h-3.19l11.055-11.11s1.368.384 3.316 1.041c2.257.762 5.482 2.048 7.08 3.53a13.95 13.95 0 0 1 3.74 5.206q1.34 2.985 1.34 6.73v.318q0 3.682-1.34 6.73a14.5 14.5 0 0 1-3.74 5.27q-2.397 2.158-5.784 3.365-3.315 1.143-7.477 1.143H11.054L23.33 36.806h1.232z" clip-rule="evenodd"/><path fill="#fff" d="m30.228 25 13.265-12.5H26.531q-2.974 0-4.803 1.714-1.83 1.714-1.83 4.572 0 2.785 1.83 4.5T26.53 25zm2.935 0L19.898 37.5H36.86q2.974 0 4.804-1.714t1.829-4.572q0-2.786-1.83-4.5T36.86 25z"/></svg>