<svg width="426" height="422" viewBox="0 0 426 422" fill="none" xmlns="http://www.w3.org/2000/svg">
<path d="M228.831 17.3895L231.616 17.7455C231.555 18.8385 231.754 19.8469 232.212 20.7705C232.671 21.694 233.359 22.4635 234.276 23.0787C235.22 23.6973 236.362 24.0922 237.703 24.2636C238.863 24.4119 239.852 24.3679 240.669 24.1314C241.514 23.8725 242.17 23.4583 242.636 22.8888C243.128 22.3226 243.426 21.6268 243.532 20.8015C243.641 19.9504 243.522 19.2406 243.175 18.6721C242.828 18.1036 242.291 17.5893 241.563 17.1294C240.836 16.6695 239.965 16.2043 238.95 15.7339C237.984 15.2959 237.011 14.8046 236.032 14.2602C235.054 13.7157 234.151 13.0892 233.324 12.3807C232.523 11.6754 231.904 10.8756 231.468 9.98108C231.035 9.06079 230.895 8.00747 231.046 6.82111C231.194 5.66055 231.642 4.61691 232.39 3.69018C233.166 2.74096 234.2 2.03432 235.492 1.57025C236.812 1.08368 238.336 0.950805 240.064 1.17162C242.772 1.51766 244.703 2.51139 245.856 4.15281C247.009 5.79424 247.405 7.82379 247.044 10.2415L244.258 9.88556C244.441 8.04786 244.093 6.66664 243.215 5.7419C242.337 4.81717 241.112 4.25428 239.538 4.05325C238.223 3.88517 237.036 4.04799 235.977 4.54173C234.921 5.00967 234.311 5.88839 234.146 7.17791C234.073 7.74529 234.112 8.26139 234.263 8.72619C234.442 9.16849 234.754 9.60149 235.197 10.0252C235.667 10.4521 236.304 10.9005 237.109 11.3704C237.943 11.8177 238.966 12.3284 240.177 12.9026C240.969 13.2659 241.768 13.6825 242.573 14.1523C243.404 14.6255 244.145 15.1789 244.798 15.8128C245.477 16.45 245.981 17.2221 246.311 18.1292C246.67 19.0138 246.768 20.088 246.607 21.3517C246.452 22.5639 246.01 23.6608 245.282 24.6424C244.583 25.6015 243.573 26.3243 242.253 26.8109C240.958 27.3007 239.344 27.4221 237.409 27.1749C235.759 26.964 234.368 26.5635 233.238 25.9735C232.137 25.3609 231.258 24.6458 230.603 23.8281C229.947 23.0104 229.462 22.1883 229.149 21.3619C228.864 20.513 228.702 19.7321 228.662 19.0193C228.622 18.3064 228.678 17.7632 228.831 17.3895Z" fill="white"/>
<path d="M263.881 25.6612L266.726 26.3421C266.227 27.5327 265.505 28.5363 264.561 29.353C263.649 30.1504 262.554 30.7038 261.277 31.013C260.031 31.303 258.675 31.2725 257.208 30.9214C255.438 30.4978 253.945 29.6993 252.729 28.5259C251.519 27.3273 250.672 25.8948 250.188 24.2285C249.736 22.543 249.737 20.752 250.191 18.8555C250.645 16.9591 251.443 15.3588 252.583 14.0545C253.75 12.7563 255.131 11.8438 256.728 11.317C258.324 10.7902 259.995 10.7355 261.739 11.1531C263.585 11.595 265.04 12.3844 266.105 13.5214C267.201 14.6392 267.862 16.0673 268.087 17.8055C268.344 19.5246 268.134 21.5194 267.457 23.7902L253.044 20.3404C252.874 21.6097 252.955 22.7786 253.287 23.8474C253.62 24.9161 254.177 25.8249 254.961 26.5738C255.75 27.2974 256.726 27.7984 257.889 28.0768C259.179 28.3855 260.345 28.317 261.387 27.8714C262.461 27.4065 263.292 26.6698 263.881 25.6612ZM261.172 14.025C259.605 13.6498 258.181 13.7902 256.901 14.4463C255.621 15.1024 254.616 16.1719 253.887 17.6549L265 20.3149C265.299 18.6218 265.058 17.2274 264.277 16.1317C263.522 15.042 262.487 14.3397 261.172 14.025Z" fill="white"/>
<path d="M278.861 16.5093L281.799 17.5579L275.245 35.9235L272.307 34.8749L278.861 16.5093ZM286.693 22.41C285.444 21.9644 284.278 21.9069 283.194 22.2378C282.143 22.5528 281.211 23.076 280.397 23.8073C279.618 24.5228 279.006 25.2706 278.562 26.0508L279.285 23.9072C279.364 23.6869 279.544 23.337 279.825 22.8577C280.107 22.3785 280.496 21.8685 280.992 21.328C281.498 20.7629 282.076 20.2652 282.726 19.8348C283.41 19.3887 284.177 19.0964 285.027 18.958C285.876 18.8196 286.803 18.9296 287.807 19.2879L286.693 22.41Z" fill="white"/>
<path d="M295.014 40.8248C293.773 40.2247 292.733 39.3603 291.893 38.2317C291.087 37.0909 290.605 35.789 290.446 34.3259C290.311 32.8741 290.623 31.3641 291.381 29.796C292.14 28.2279 293.13 27.0463 294.353 26.2513C295.586 25.4328 296.9 24.9854 298.295 24.9091C299.701 24.8093 301.047 25.0709 302.334 25.6937C302.732 25.8862 303.09 26.1024 303.407 26.3425C303.759 26.5705 304.07 26.8223 304.341 27.0978L311.468 30.5458L310.007 33.565C309.001 33.0781 308.085 32.4039 307.26 31.5425C306.458 30.6925 305.802 29.8987 305.292 29.1611L305.22 28.9527C305.824 29.7937 306.236 30.643 306.457 31.5007C306.701 32.3696 306.764 33.2526 306.648 34.1495C306.567 35.0343 306.311 35.9214 305.881 36.8108C305.122 38.3789 304.131 39.5605 302.909 40.3556C301.71 41.1619 300.414 41.6033 299.019 41.6796C297.636 41.7325 296.301 41.4476 295.014 40.8248ZM295.436 53.1165L295.809 52.3442C296.409 51.1037 296.518 50.0441 296.134 49.1653C295.774 48.2979 294.95 47.5528 293.663 46.93L290.152 45.2315C289.38 44.8578 288.735 44.4592 288.218 44.0357C287.713 43.6469 287.335 43.2332 287.086 42.7946C286.836 42.356 286.708 41.9041 286.702 41.4391C286.695 40.974 286.806 40.5074 287.032 40.0393C287.462 39.1499 288.054 38.6131 288.808 38.4289C289.573 38.2212 290.381 38.2514 291.233 38.5193C292.086 38.7873 292.847 39.1553 293.515 39.6234L295.014 40.8248C293.716 40.2836 292.671 39.9367 291.878 39.7843C291.109 39.6431 290.577 39.8768 290.282 40.4853C290.112 40.8364 290.1 41.1913 290.244 41.5499C290.423 41.8964 290.781 42.1999 291.32 42.4603L294.971 44.2267C296.188 44.8155 297.22 45.5172 298.068 46.3318C298.905 47.1698 299.435 48.1339 299.658 49.224C299.871 50.3376 299.637 51.5965 298.958 53.0008L298.244 54.4753L295.436 53.1165ZM296.288 38.1918C297.06 38.5655 297.864 38.7236 298.701 38.6662C299.561 38.6201 300.377 38.3362 301.149 37.8144C301.922 37.2927 302.562 36.5052 303.072 35.452C303.582 34.3988 303.801 33.4075 303.731 32.4781C303.695 31.5367 303.429 30.7145 302.931 30.0117C302.445 29.2854 301.816 28.7355 301.043 28.3618C300.271 27.9881 299.449 27.836 298.578 27.9056C297.718 27.9517 296.902 28.2356 296.13 28.7573C295.357 29.279 294.711 30.0782 294.19 31.1548C293.68 32.208 293.461 33.1993 293.531 34.1287C293.601 35.058 293.885 35.8742 294.383 36.577C294.88 37.2799 295.515 37.8181 296.288 38.1918Z" fill="white"/>
<path d="M328.361 31.7397L326.356 34.948L322.916 32.7988L324.921 29.5905L328.361 31.7397ZM321.185 36.4535L323.831 38.1067L313.498 54.6443L310.852 52.9911L321.185 36.4535Z" fill="white"/>
<path d="M328.429 65.7797C327.12 64.7512 326.143 63.4702 325.497 61.9367C324.85 60.4032 324.635 58.7624 324.852 57.0145C325.105 55.2622 325.875 53.5685 327.16 51.9334C328.446 50.2982 329.902 49.1611 331.529 48.522C333.193 47.8785 334.854 47.6797 336.513 47.9256C338.171 48.1714 339.655 48.8086 340.963 49.837C342.271 50.8655 343.23 52.1487 343.84 53.6866C344.47 55.2405 344.659 56.8936 344.406 58.6459C344.169 60.3778 343.407 62.0613 342.122 63.6964C340.836 65.3316 339.372 66.4789 337.729 67.1384C336.102 67.7776 334.467 67.964 332.824 67.6977C331.202 67.4475 329.737 66.8081 328.429 65.7797ZM330.236 63.4802C331.095 64.1552 332.071 64.5753 333.165 64.7407C334.258 64.906 335.37 64.7545 336.499 64.2861C337.664 63.8133 338.721 62.974 339.669 61.768C340.617 60.5621 341.175 59.3473 341.344 58.1236C341.549 56.8956 341.45 55.7594 341.047 54.7152C340.644 53.671 340.014 52.8114 339.155 52.1364C338.297 51.4615 337.302 51.0436 336.172 50.8826C335.078 50.7172 333.949 50.8709 332.783 51.3437C331.634 51.796 330.577 52.6354 329.613 53.8617C328.665 55.0677 328.088 56.2846 327.884 57.5127C327.715 58.7364 327.851 59.8682 328.29 60.908C328.729 61.9479 329.378 62.8053 330.236 63.4802Z" fill="white"/>
<path d="M371.155 97.1262C369.585 98.0824 367.974 98.6005 366.322 98.6807C364.67 98.7608 363.076 98.4402 361.539 97.7187C360.038 97.0008 358.693 95.9192 357.503 94.4741C356.396 93.1293 355.602 91.6948 355.122 90.1706C354.661 88.6299 354.518 87.0644 354.69 85.4741C354.879 83.904 355.398 82.3657 356.245 80.8593C357.093 79.3529 358.28 77.9717 359.805 76.7157C361.351 75.4431 362.934 74.5436 364.555 74.0172C366.196 73.4743 367.805 73.2607 369.382 73.3765C370.976 73.5124 372.475 73.9624 373.879 74.7263C375.302 75.4738 376.568 76.5199 377.675 77.8647C378.882 79.3299 379.683 80.876 380.08 82.5029C380.513 84.1333 380.522 85.7596 380.106 87.3817C379.71 88.9873 378.883 90.4771 377.623 91.8512L375.788 89.6233C376.56 88.516 377.04 87.3803 377.226 86.2162C377.43 85.0722 377.373 83.94 377.057 82.8196C376.74 81.6992 376.194 80.6673 375.417 79.7239C374.409 78.4996 373.158 77.5934 371.663 77.0053C370.185 76.4373 368.591 76.3014 366.882 76.5976C365.172 76.8938 363.474 77.736 361.788 79.1243C360.102 80.5125 358.95 82.0171 358.331 83.638C357.712 85.2589 357.54 86.8492 357.814 88.4088C358.104 89.9884 358.753 91.3904 359.761 92.6148C360.538 93.5582 361.428 94.2908 362.43 94.8127C363.469 95.3382 364.569 95.611 365.731 95.6311C366.909 95.6714 368.106 95.4271 369.32 94.8983L371.155 97.1262Z" fill="white"/>
<path d="M368.267 109.134C367.425 107.852 367.006 106.432 367.01 104.874C367.05 103.324 367.486 101.809 368.318 100.33C369.187 98.8573 370.436 97.5861 372.066 96.5158C373.696 95.4455 375.366 94.8154 377.077 94.6254C378.787 94.4355 380.376 94.6521 381.842 95.2753C383.323 95.9203 384.52 96.9382 385.434 98.3292C386.433 99.8505 386.798 101.259 386.529 102.555C386.296 103.859 385.632 105.073 384.535 106.198C383.452 107.344 382.129 108.431 380.564 109.458C379.738 110 378.779 110.506 377.687 110.974C376.616 111.428 375.493 111.73 374.316 111.881C373.176 112.039 372.073 111.923 371.009 111.533C369.966 111.129 369.052 110.33 368.267 109.134ZM371.173 108.159C371.901 109.268 372.772 110.002 373.786 110.363C374.815 110.745 375.889 110.817 377.008 110.58C378.149 110.328 379.263 109.846 380.35 109.132C381.545 108.347 382.467 107.478 383.116 106.523C383.8 105.576 384.15 104.569 384.164 103.502C384.215 102.442 383.884 101.369 383.17 100.282C382.1 98.652 380.696 97.7696 378.959 97.6349C377.244 97.4859 375.517 97.9822 373.778 99.1238C372.626 99.8801 371.737 100.775 371.109 101.809C370.518 102.851 370.211 103.923 370.189 105.026C370.203 106.137 370.531 107.181 371.173 108.159ZM388.533 103.759L390.245 106.367L373.945 117.07L372.382 114.69C372.382 114.69 372.564 114.54 372.926 114.24C373.303 113.961 373.738 113.629 374.231 113.243C374.724 112.857 375.145 112.55 375.492 112.322L388.533 103.759Z" fill="white"/>
<path d="M381.737 118.268L383.052 120.836C382.093 121.415 381.472 122.2 381.191 123.191C380.922 124.206 381.119 125.361 381.782 126.657C382.185 127.444 382.603 128.004 383.037 128.337C383.482 128.693 383.931 128.886 384.385 128.917C384.862 128.936 385.321 128.832 385.76 128.607C386.293 128.335 386.638 127.983 386.797 127.551C386.99 127.13 387.073 126.635 387.044 126.066C387.027 125.52 386.963 124.91 386.852 124.236C386.763 123.435 386.674 122.604 386.584 121.745C386.53 120.896 386.539 120.059 386.613 119.233C386.721 118.418 386.97 117.677 387.359 117.011C387.771 116.332 388.394 115.78 389.227 115.353C389.921 114.998 390.64 114.805 391.384 114.774C392.151 114.732 392.885 114.853 393.586 115.137C394.321 115.433 394.994 115.862 395.604 116.426C396.226 117.013 396.756 117.735 397.194 118.591C397.787 119.748 398.053 120.839 397.993 121.863C397.945 122.91 397.599 123.861 396.956 124.716C396.348 125.582 395.494 126.311 394.395 126.903L393.169 124.508C394.127 123.812 394.708 123.092 394.91 122.346C395.147 121.611 395.029 120.781 394.555 119.855C394.069 118.906 393.488 118.284 392.81 117.988C392.133 117.692 391.447 117.722 390.753 118.077C390.244 118.338 389.911 118.742 389.753 119.29C389.619 119.826 389.561 120.455 389.579 121.175C389.633 121.908 389.692 122.68 389.758 123.494C389.824 124.307 389.878 125.097 389.92 125.864C389.962 126.631 389.923 127.353 389.801 128.028C389.68 128.704 389.412 129.323 388.999 129.885C388.621 130.458 388.027 130.952 387.217 131.367C386.245 131.864 385.258 132.077 384.258 132.005C383.292 131.945 382.376 131.581 381.509 130.915C380.654 130.272 379.907 129.326 379.267 128.076C378.686 126.942 378.327 125.899 378.19 124.947C378.088 124.006 378.133 123.151 378.323 122.382C378.536 121.6 378.832 120.923 379.211 120.35C379.601 119.8 380.027 119.348 380.488 118.995C380.95 118.641 381.366 118.399 381.737 118.268Z" fill="white"/>
<path d="M403.666 133.486L407.762 144.196L405.03 145.241L400.934 134.531L403.666 133.486ZM409.892 135.573L411.007 138.487L388.058 147.265L386.944 144.351L409.892 135.573Z" fill="white"/>
<path d="M411.486 156.263L412.28 159.28L393.423 164.246L392.629 161.229L411.486 156.263ZM411.041 166.059C410.703 164.777 410.091 163.782 409.206 163.074C408.352 162.385 407.394 161.911 406.331 161.653C405.3 161.414 404.338 161.331 403.443 161.406L405.621 160.792C405.847 160.732 406.237 160.683 406.792 160.645C407.346 160.606 407.987 160.639 408.713 160.744C409.465 160.841 410.202 161.037 410.925 161.331C411.679 161.643 412.353 162.111 412.948 162.734C413.542 163.357 413.975 164.184 414.246 165.215L411.041 166.059Z" fill="white"/>
<path d="M397.266 184.858C397.018 183.213 397.184 181.61 397.764 180.05C398.344 178.49 399.311 177.148 400.667 176.023C402.052 174.92 403.773 174.214 405.829 173.904C407.886 173.594 409.726 173.763 411.349 174.412C413.001 175.084 414.348 176.077 415.387 177.393C416.427 178.708 417.071 180.189 417.319 181.834C417.567 183.48 417.387 185.071 416.777 186.609C416.172 188.173 415.176 189.506 413.791 190.609C412.432 191.708 410.724 192.413 408.667 192.723C406.61 193.033 404.758 192.865 403.109 192.22C401.486 191.571 400.168 190.586 399.153 189.267C398.143 187.973 397.514 186.503 397.266 184.858ZM400.158 184.422C400.321 185.502 400.744 186.476 401.428 187.346C402.111 188.216 403.024 188.867 404.167 189.3C405.34 189.754 406.685 189.867 408.202 189.638C409.719 189.409 410.958 188.907 411.919 188.131C412.909 187.377 413.616 186.481 414.038 185.445C414.46 184.408 414.59 183.35 414.427 182.27C414.264 181.191 413.826 180.205 413.113 179.313C412.43 178.443 411.502 177.781 410.329 177.327C409.182 176.869 407.837 176.756 406.295 176.989C404.778 177.218 403.524 177.709 402.533 178.463C401.572 179.239 400.896 180.156 400.503 181.215C400.11 182.273 399.995 183.342 400.158 184.422Z" fill="white"/>
<path d="M399.899 214.698L425.796 207.264L425.575 210.61L403.11 216.981L403.171 216.048L424.623 225.009L424.402 228.356L401.957 234.415L402.019 233.481L423.45 242.754L423.234 246.023L398.536 235.323L398.752 232.054L421.972 226.085L421.916 226.941L399.683 217.967L399.899 214.698Z" fill="white"/>
<path d="M401.918 251.881L401.412 254.762C400.193 254.337 399.147 253.678 398.274 252.786C397.423 251.923 396.804 250.864 396.417 249.608C396.052 248.383 395.999 247.027 396.26 245.542C396.575 243.749 397.281 242.21 398.378 240.925C399.5 239.644 400.878 238.711 402.512 238.127C404.167 237.573 405.954 237.464 407.875 237.801C409.796 238.139 411.442 238.837 412.813 239.896C414.18 240.981 415.175 242.304 415.799 243.865C416.422 245.427 416.578 247.091 416.268 248.858C415.94 250.727 415.241 252.228 414.171 253.36C413.122 254.522 411.737 255.269 410.016 255.6C408.316 255.961 406.312 255.873 404.004 255.336L406.567 240.739C405.29 240.647 404.128 240.799 403.082 241.196C402.035 241.593 401.162 242.206 400.462 243.033C399.788 243.865 399.348 244.87 399.141 246.048C398.912 247.354 399.051 248.514 399.56 249.527C400.089 250.57 400.875 251.355 401.918 251.881ZM413.367 248.467C413.646 246.879 413.419 245.467 412.686 244.229C411.953 242.992 410.824 242.055 409.299 241.417L407.323 252.672C409.031 252.866 410.408 252.541 411.454 251.695C412.495 250.875 413.133 249.799 413.367 248.467Z" fill="white"/>
<path d="M391.365 265.917C391.762 264.543 392.399 263.51 393.277 262.816C394.179 262.13 395.202 261.682 396.346 261.471C397.507 261.293 398.666 261.263 399.823 261.381C401.004 261.507 402.07 261.707 403.019 261.981C404.367 262.372 405.603 262.824 406.727 263.339C407.843 263.878 408.782 264.515 409.543 265.25C410.305 265.985 410.809 266.861 411.056 267.88C411.32 268.931 411.25 270.156 410.845 271.554C410.39 273.128 409.561 274.403 408.357 275.382C407.154 276.36 405.714 276.985 404.039 277.258C402.363 277.531 400.588 277.396 398.715 276.854C396.842 276.312 395.273 275.466 394.009 274.315C392.77 273.172 391.903 271.865 391.408 270.396C390.938 268.933 390.924 267.44 391.365 265.917ZM394.429 265.992C394.096 267.14 394.091 268.235 394.412 269.275C394.759 270.323 395.371 271.245 396.251 272.041C397.148 272.869 398.259 273.474 399.582 273.857C401.58 274.435 403.377 274.4 404.972 273.752C406.592 273.111 407.673 271.854 408.215 269.981C408.576 268.732 408.58 267.597 408.226 266.574C407.89 265.584 407.259 264.724 406.333 263.996C405.425 263.3 404.284 262.754 402.91 262.356C401.662 261.995 400.455 261.862 399.29 261.958C398.143 262.086 397.139 262.472 396.276 263.116C395.413 263.759 394.797 264.718 394.429 265.992ZM419.806 267.245L397.328 260.741C396.879 260.611 396.29 260.4 395.563 260.108C394.828 259.841 394.193 259.603 393.658 259.394L394.449 256.66L420.673 264.248L419.806 267.245Z" fill="white"/>
<path d="M400.035 312.068C398.82 314.307 397.505 316.02 396.093 317.205C394.69 318.426 393.227 319.214 391.702 319.57C390.178 319.926 388.641 319.95 387.093 319.642C385.544 319.333 384.027 318.776 382.542 317.97C381.057 317.164 379.758 316.177 378.645 315.011C377.533 313.845 376.712 312.497 376.182 310.967C375.639 309.459 375.469 307.784 375.671 305.941C375.895 304.111 376.59 302.121 377.756 299.973L381.683 292.741L403.961 304.836L400.035 312.068ZM382.765 296.879L380.327 301.369C379.347 303.174 378.792 304.796 378.662 306.234C378.52 307.695 378.674 308.992 379.124 310.124C379.598 311.268 380.274 312.257 381.153 313.089C382.02 313.944 382.98 314.657 384.031 315.228C385.082 315.799 386.191 316.208 387.357 316.457C388.512 316.729 389.675 316.739 390.846 316.487C392.041 316.248 393.201 315.665 394.326 314.737C395.438 313.833 396.485 312.478 397.465 310.672L399.902 306.182L382.765 296.879Z" fill="white"/>
<path d="M367.967 327.368L366.303 329.774C365.373 328.878 364.699 327.842 364.279 326.667C363.866 325.527 363.746 324.306 363.92 323.004C364.101 321.738 364.62 320.485 365.478 319.244C366.513 317.748 367.798 316.645 369.332 315.935C370.887 315.241 372.529 314.97 374.257 315.122C375.992 315.311 377.662 315.96 379.265 317.069C380.869 318.178 382.072 319.501 382.875 321.036C383.663 322.593 384.014 324.211 383.928 325.89C383.841 327.569 383.287 329.146 382.267 330.622C381.187 332.183 379.924 333.254 378.479 333.835C377.041 334.452 375.47 334.551 373.768 334.132C372.073 333.75 370.289 332.832 368.417 331.379L376.849 319.191C375.727 318.573 374.608 318.226 373.491 318.149C372.375 318.072 371.326 318.263 370.344 318.722C369.384 319.196 368.564 319.925 367.883 320.908C367.129 321.999 366.771 323.111 366.809 324.244C366.854 325.413 367.24 326.454 367.967 327.368ZM379.795 329.054C380.712 327.728 381.096 326.35 380.948 324.919C380.799 323.489 380.166 322.165 379.047 320.949L372.546 330.346C374.016 331.237 375.403 331.517 376.707 331.186C377.996 330.876 379.026 330.166 379.795 329.054Z" fill="white"/>
<path d="M355.533 336.923L356.146 336.215L364.956 351.724L362.737 354.29L352.835 335.93L354.748 333.717L374.319 340.898L372.1 343.464L355.533 336.923Z" fill="white"/>
<path d="M339.709 357.935L337.569 359.929C336.853 358.855 336.416 357.699 336.257 356.461C336.098 355.259 336.242 354.041 336.691 352.806C337.138 351.608 337.913 350.494 339.017 349.467C340.348 348.226 341.839 347.424 343.49 347.059C345.157 346.714 346.819 346.8 348.475 347.319C350.129 347.874 351.621 348.865 352.95 350.292C354.279 351.719 355.172 353.268 355.627 354.94C356.064 356.63 356.061 358.285 355.617 359.907C355.173 361.528 354.295 362.951 352.982 364.173C351.593 365.467 350.131 366.243 348.595 366.501C347.057 366.796 345.502 366.557 343.929 365.784C342.355 365.047 340.809 363.769 339.291 361.949L350.135 351.848C349.172 351.004 348.153 350.426 347.079 350.111C346.005 349.797 344.939 349.76 343.882 349.998C342.843 350.255 341.885 350.792 341.01 351.607C340.04 352.511 339.452 353.52 339.247 354.635C339.041 355.787 339.195 356.887 339.709 357.935ZM350.903 362.113C352.082 361.014 352.752 359.75 352.914 358.321C353.075 356.892 352.739 355.463 351.907 354.036L343.545 361.824C344.791 363.009 346.086 363.579 347.43 363.535C348.756 363.508 349.913 363.034 350.903 362.113Z" fill="white"/>
<path d="M341.855 383.12L339.356 384.989L323.007 363.126L325.506 361.257L341.855 383.12Z" fill="white"/>
<path d="M307.21 373.025C308.643 372.177 310.19 371.73 311.854 371.682C313.517 371.634 315.125 372.028 316.676 372.862C318.218 373.732 319.518 375.062 320.577 376.853C321.636 378.643 322.17 380.412 322.177 382.16C322.175 383.943 321.759 385.564 320.929 387.021C320.1 388.479 318.969 389.631 317.537 390.479C316.105 391.326 314.562 391.756 312.907 391.768C311.23 391.793 309.621 391.371 308.079 390.501C306.551 389.653 305.257 388.334 304.197 386.544C303.138 384.754 302.599 382.973 302.578 381.203C302.571 379.455 302.989 377.863 303.832 376.428C304.652 375.007 305.778 373.872 307.21 373.025ZM308.7 375.542C307.76 376.098 307.015 376.856 306.465 377.816C305.915 378.776 305.654 379.866 305.683 381.088C305.702 382.346 306.102 383.635 306.883 384.955C307.664 386.275 308.594 387.235 309.674 387.835C310.745 388.47 311.84 388.789 312.959 388.792C314.078 388.794 315.108 388.517 316.048 387.961C316.987 387.405 317.737 386.629 318.296 385.634C318.846 384.674 319.111 383.566 319.092 382.308C319.087 381.073 318.686 379.784 317.892 378.441C317.111 377.121 316.185 376.143 315.114 375.508C314.035 374.908 312.93 374.625 311.802 374.658C310.674 374.691 309.64 374.986 308.7 375.542Z" fill="white"/>
<path d="M288.313 382.736C289.614 382.144 290.814 381.956 291.911 382.172C293.02 382.411 294.025 382.896 294.929 383.628C295.82 384.394 296.596 385.255 297.259 386.21C297.932 387.19 298.473 388.129 298.882 389.029C299.463 390.307 299.923 391.54 300.262 392.728C300.579 393.926 300.705 395.054 300.643 396.11C300.58 397.167 300.242 398.12 299.629 398.97C299.002 399.854 298.026 400.597 296.701 401.2C295.28 401.845 293.807 402.028 292.282 401.751C290.756 401.473 289.333 400.791 288.012 399.707C286.667 398.633 285.592 397.208 284.785 395.433C283.979 393.657 283.613 391.91 283.689 390.191C283.775 388.495 284.228 386.976 285.046 385.633C285.851 384.325 286.94 383.359 288.313 382.736ZM290.249 385.112C289.16 385.606 288.325 386.314 287.744 387.235C287.149 388.19 286.836 389.261 286.804 390.446C286.782 391.655 287.056 392.887 287.626 394.142C288.486 396.036 289.681 397.378 291.211 398.168C292.751 398.981 294.409 398.985 296.185 398.178C297.226 397.705 298.021 397.002 298.567 396.068C299.125 395.158 299.403 394.104 299.401 392.905C299.41 391.73 299.118 390.492 298.527 389.19C297.989 388.006 297.305 387.003 296.475 386.181C295.631 385.393 294.685 384.881 293.635 384.644C292.585 384.407 291.456 384.563 290.249 385.112ZM305.416 396.812L302.682 398.054L300.882 394.374L291.284 373.247L294.125 371.956L305.416 396.812Z" fill="white"/>
<path d="M267.116 397.699L264.338 398.615C264.137 397.34 264.223 396.107 264.597 394.916C264.954 393.758 265.594 392.712 266.518 391.778C267.426 390.876 268.595 390.189 270.027 389.717C271.756 389.147 273.446 389.041 275.097 389.4C276.757 389.783 278.23 390.557 279.517 391.72C280.788 392.916 281.729 394.44 282.339 396.292C282.95 398.144 283.113 399.925 282.828 401.634C282.519 403.351 281.823 404.854 280.742 406.141C279.661 407.429 278.268 408.353 276.565 408.915C274.762 409.51 273.109 409.603 271.606 409.195C270.086 408.821 268.773 407.953 267.668 406.593C266.545 405.266 265.676 403.458 265.058 401.171L279.132 396.529C278.61 395.359 277.926 394.408 277.082 393.673C276.237 392.939 275.285 392.459 274.225 392.234C273.173 392.033 272.079 392.12 270.944 392.494C269.684 392.91 268.728 393.581 268.076 394.508C267.407 395.468 267.087 396.532 267.116 397.699ZM275.537 406.174C277.068 405.669 278.206 404.801 278.95 403.57C279.693 402.339 279.986 400.901 279.826 399.256L268.974 402.836C269.611 404.433 270.549 405.492 271.789 406.014C273.004 406.544 274.253 406.597 275.537 406.174Z" fill="white"/>
<path d="M259.184 413.359L256.133 414.012L252.054 394.944L255.105 394.291L259.184 413.359ZM249.42 412.457C250.716 412.18 251.739 411.615 252.487 410.764C253.216 409.943 253.734 409.008 254.041 407.959C254.328 406.94 254.455 405.982 254.423 405.085L254.934 407.289C254.983 407.518 255.014 407.91 255.027 408.466C255.039 409.022 254.976 409.66 254.838 410.381C254.705 411.127 254.475 411.854 254.148 412.562C253.801 413.301 253.302 413.953 252.652 414.518C252.002 415.082 251.155 415.476 250.113 415.699L249.42 412.457Z" fill="white"/>
<path d="M216.839 411.136L205.529 411.08L205.543 408.194L216.853 408.25L216.839 411.136Z" fill="white"/>
<path d="M218.841 18.1605L207.531 18.1048L207.546 15.2189L218.856 15.2746L218.841 18.1605Z" fill="white"/>
<path d="M178.378 404.53L175.638 403.915C175.801 402.833 175.697 401.81 175.326 400.848C174.956 399.886 174.343 399.055 173.487 398.357C172.606 397.653 171.505 397.153 170.186 396.858C169.044 396.602 168.056 396.553 167.221 396.712C166.355 396.891 165.663 397.242 165.146 397.766C164.604 398.284 164.241 398.948 164.059 399.76C163.872 400.597 163.924 401.315 164.216 401.914C164.508 402.512 164.995 403.074 165.676 403.6C166.358 404.126 167.182 404.67 168.148 405.234C169.069 405.76 169.991 406.34 170.915 406.973C171.839 407.607 172.679 408.315 173.437 409.097C174.168 409.874 174.709 410.728 175.06 411.66C175.405 412.616 175.447 413.678 175.185 414.845C174.929 415.987 174.386 416.984 173.555 417.837C172.693 418.71 171.598 419.317 170.269 419.658C168.909 420.019 167.379 420.009 165.679 419.628C163.015 419.031 161.186 417.861 160.191 416.119C159.196 414.377 158.991 412.32 159.577 409.946L162.317 410.561C161.964 412.373 162.181 413.781 162.969 414.784C163.756 415.786 164.924 416.461 166.472 416.808C167.765 417.098 168.963 417.047 170.063 416.654C171.158 416.287 171.848 415.469 172.132 414.201C172.257 413.643 172.267 413.125 172.161 412.648C172.023 412.191 171.753 411.731 171.351 411.268C170.923 410.799 170.331 410.293 169.573 409.75C168.785 409.227 167.814 408.623 166.662 407.938C165.907 407.502 165.151 407.013 164.393 406.47C163.61 405.921 162.923 405.301 162.333 404.609C161.716 403.911 161.286 403.095 161.043 402.161C160.768 401.247 160.77 400.168 161.049 398.925C161.317 397.733 161.859 396.682 162.675 395.773C163.461 394.883 164.534 394.258 165.894 393.897C167.229 393.53 168.847 393.56 170.75 393.986C172.374 394.35 173.721 394.879 174.791 395.572C175.83 396.285 176.638 397.079 177.214 397.954C177.791 398.829 178.197 399.693 178.432 400.545C178.636 401.417 178.725 402.21 178.698 402.923C178.671 403.636 178.565 404.172 178.378 404.53Z" fill="white"/>
<path d="M144.253 393.022L141.484 392.078C142.092 390.939 142.904 390.008 143.92 389.283C144.903 388.574 146.045 388.125 147.345 387.937C148.613 387.764 149.96 387.921 151.387 388.408C153.11 388.995 154.522 389.929 155.624 391.211C156.717 392.517 157.426 394.023 157.752 395.727C158.044 397.447 157.876 399.23 157.247 401.076C156.618 402.922 155.675 404.441 154.417 405.633C153.135 406.816 151.674 407.596 150.036 407.971C148.397 408.347 146.728 408.245 145.03 407.666C143.234 407.054 141.859 406.132 140.905 404.901C139.918 403.686 139.394 402.202 139.331 400.45C139.236 398.715 139.632 396.748 140.518 394.551L154.546 399.331C154.833 398.083 154.862 396.912 154.631 395.817C154.4 394.722 153.929 393.765 153.219 392.946C152.501 392.152 151.576 391.562 150.444 391.176C149.189 390.748 148.021 390.708 146.942 391.054C145.83 391.417 144.933 392.073 144.253 393.022ZM145.863 404.86C147.389 405.38 148.82 405.373 150.155 404.839C151.491 404.306 152.591 403.335 153.455 401.926L142.639 398.24C142.184 399.898 142.294 401.309 142.968 402.473C143.618 403.628 144.583 404.424 145.863 404.86Z" fill="white"/>
<path d="M128.484 400.735L125.656 399.417L133.896 381.743L136.724 383.062L128.484 400.735ZM121.236 394.129C122.438 394.689 123.594 394.855 124.705 394.627C125.781 394.412 126.757 393.978 127.635 393.326C128.478 392.686 129.158 391.999 129.673 391.263L128.752 393.33C128.653 393.542 128.441 393.874 128.116 394.325C127.791 394.775 127.356 395.247 126.811 395.739C126.256 396.254 125.634 396.696 124.946 397.063C124.224 397.444 123.433 397.663 122.574 397.722C121.714 397.78 120.802 397.584 119.836 397.134L121.236 394.129Z" fill="white"/>
<path d="M114.672 375.018C115.851 375.731 116.806 376.689 117.537 377.891C118.233 379.102 118.591 380.443 118.612 381.915C118.612 383.373 118.16 384.847 117.258 386.338C116.357 387.828 115.26 388.912 113.969 389.59C112.664 390.289 111.314 390.612 109.919 390.558C108.51 390.526 107.194 390.14 105.97 389.4C105.592 389.171 105.256 388.922 104.963 388.653C104.634 388.394 104.348 388.114 104.103 387.814L97.3297 383.716L99.0659 380.846C100.022 381.425 100.871 382.182 101.613 383.116C102.332 384.038 102.91 384.889 103.349 385.671L103.402 385.885C102.879 384.992 102.548 384.108 102.408 383.233C102.246 382.345 102.265 381.46 102.465 380.578C102.628 379.705 102.966 378.845 103.477 378C104.379 376.509 105.476 375.425 106.767 374.748C108.036 374.057 109.368 373.739 110.763 373.793C112.145 373.869 113.448 374.278 114.672 375.018ZM115.399 362.741L114.955 363.475C114.242 364.654 114.035 365.699 114.335 366.609C114.612 367.507 115.363 368.325 116.586 369.066L119.923 371.084C120.657 371.529 121.262 371.986 121.737 372.456C122.204 372.89 122.541 373.337 122.749 373.797C122.957 374.257 123.042 374.719 123.005 375.182C122.967 375.646 122.814 376.1 122.545 376.545C122.034 377.391 121.394 377.87 120.627 377.983C119.846 378.118 119.044 378.013 118.22 377.666C117.396 377.32 116.674 376.883 116.051 376.354L114.672 375.018C115.913 375.678 116.922 376.121 117.697 376.347C118.449 376.559 119.001 376.376 119.351 375.798C119.553 375.464 119.598 375.112 119.488 374.741C119.343 374.38 119.014 374.044 118.502 373.735L115.032 371.635C113.875 370.935 112.913 370.14 112.145 369.25C111.39 368.337 110.952 367.328 110.831 366.222C110.724 365.093 111.074 363.862 111.882 362.527L112.73 361.126L115.399 362.741ZM113.157 377.521C112.423 377.076 111.637 376.844 110.799 376.823C109.939 376.789 109.099 376.995 108.282 377.442C107.464 377.89 106.753 378.614 106.147 379.615C105.541 380.616 105.23 381.582 105.213 382.514C105.161 383.455 105.349 384.298 105.779 385.045C106.195 385.813 106.771 386.419 107.505 386.864C108.239 387.308 109.043 387.536 109.917 387.548C110.777 387.582 111.616 387.376 112.434 386.929C113.251 386.481 113.97 385.746 114.589 384.723C115.195 383.722 115.506 382.755 115.523 381.823C115.54 380.891 115.333 380.052 114.903 379.306C114.473 378.56 113.892 377.965 113.157 377.521Z" fill="white"/>
<path d="M80.622 380.95L82.9173 377.943L86.1414 380.404L83.8461 383.411L80.622 380.95ZM88.2066 376.927L85.7265 375.034L97.5578 359.533L100.038 361.426L88.2066 376.927Z" fill="white"/>
<path d="M83.7327 347.052C84.9391 348.198 85.7925 349.565 86.293 351.152C86.7934 352.739 86.8542 354.393 86.4752 356.113C86.0596 357.834 85.1354 359.448 83.7028 360.956C82.2702 362.464 80.7141 363.46 79.0346 363.945C77.3183 364.43 75.6458 364.473 74.0172 364.073C72.3885 363.674 70.971 362.901 69.7646 361.755C68.5583 360.609 67.7232 359.242 67.2595 357.653C66.777 356.047 66.7436 354.384 67.1593 352.663C67.557 350.961 68.4722 349.356 69.9048 347.848C71.3375 346.34 72.9025 345.334 74.6 344.831C76.2795 344.346 77.9246 344.313 79.5354 344.732C81.1272 345.133 82.5264 345.906 83.7327 347.052ZM81.7181 349.173C80.9264 348.42 79.9938 347.911 78.9203 347.644C77.8468 347.378 76.7262 347.425 75.5584 347.786C74.3539 348.147 73.2234 348.884 72.1668 349.997C71.1102 351.109 70.441 352.266 70.1592 353.469C69.8406 354.672 69.8331 355.813 70.1365 356.89C70.44 357.967 70.9876 358.882 71.7793 359.634C72.571 360.386 73.5219 360.895 74.6322 361.161C75.7057 361.428 76.8447 361.38 78.0492 361.018C79.2358 360.675 80.3664 359.938 81.4408 358.807C82.4974 357.695 83.185 356.537 83.5036 355.334C83.7854 354.131 83.7562 352.992 83.416 351.915C83.0757 350.839 82.5098 349.925 81.7181 349.173Z" fill="white"/>
<path d="M44.1195 311.854C45.7722 311.048 47.4245 310.683 49.0765 310.757C50.7284 310.832 52.2859 311.3 53.7489 312.162C55.1758 313.016 56.4141 314.219 57.4639 315.769C58.4408 317.211 59.0973 318.713 59.4333 320.276C59.7477 321.853 59.7448 323.425 59.4246 324.992C59.0898 326.538 58.43 328.021 57.4453 329.442C56.4606 330.862 55.1502 332.127 53.5142 333.235C51.8566 334.357 50.1963 335.105 48.5332 335.478C46.8486 335.865 45.2265 335.928 43.6669 335.665C42.0928 335.381 40.6426 334.793 39.3164 333.901C37.9687 333.024 36.8063 331.865 35.8294 330.422C34.7651 328.851 34.1114 327.237 33.8685 325.58C33.5894 323.916 33.7326 322.296 34.2979 320.72C34.8417 319.158 35.8049 317.752 37.1875 316.502L38.806 318.891C37.9338 319.922 37.3504 321.008 37.0559 322.149C36.7469 323.269 36.6975 324.402 36.9078 325.547C37.1181 326.692 37.5659 327.77 38.2512 328.782C39.1406 330.095 40.3019 331.114 41.7351 331.839C43.1537 332.543 44.7278 332.827 46.4575 332.692C48.1872 332.556 49.9562 331.876 51.7645 330.651C53.5727 329.427 54.8606 328.036 55.628 326.48C56.3954 324.924 56.7156 323.357 56.5886 321.779C56.4471 320.179 55.9316 318.722 55.0422 317.409C54.3569 316.397 53.5396 315.585 52.5905 314.972C51.6052 314.351 50.5351 313.977 49.3804 313.849C48.2111 313.699 46.9969 313.83 45.738 314.243L44.1195 311.854Z" fill="white"/>
<path d="M48.1156 300.167C48.8342 301.523 49.1189 302.976 48.9698 304.526C48.7856 306.066 48.21 307.533 47.243 308.929C46.2409 310.314 44.8785 311.463 43.1556 312.376C41.4328 313.29 39.7111 313.761 37.9904 313.79C36.2697 313.82 34.7083 313.456 33.3062 312.698C31.8918 311.918 30.795 310.793 30.0155 309.323C29.163 307.715 28.931 306.278 29.3195 305.012C29.6728 303.736 30.448 302.59 31.645 301.572C32.8298 300.532 34.2491 299.574 35.903 298.697C36.7759 298.234 37.7779 297.82 38.9091 297.456C40.0172 297.104 41.164 296.908 42.3494 296.868C43.4997 296.817 44.5865 297.036 45.61 297.523C46.6106 298.023 47.4458 298.904 48.1156 300.167ZM45.1316 300.867C44.5104 299.695 43.7118 298.883 42.7356 298.429C41.7472 297.953 40.6847 297.78 39.548 297.912C38.3884 298.056 37.2343 298.432 36.0857 299.041C34.8223 299.711 33.8232 300.491 33.0884 301.381C32.3185 302.26 31.8764 303.23 31.7622 304.291C31.6128 305.342 31.8426 306.441 32.4515 307.59C33.3649 309.312 34.6801 310.322 36.3969 310.618C38.0907 310.927 39.8565 310.594 41.6942 309.62C42.9116 308.974 43.881 308.166 44.6022 307.195C45.2882 306.213 45.6938 305.174 45.8188 304.078C45.9087 302.971 45.6796 301.9 45.1316 300.867ZM27.4371 303.627L25.9756 300.87L43.2039 291.736L44.5375 294.251C44.5375 294.251 44.343 294.384 43.9538 294.649C43.5525 294.891 43.0884 295.181 42.5615 295.52C42.0345 295.858 41.5873 296.125 41.2197 296.319L27.4371 303.627Z" fill="white"/>
<path d="M35.5573 289.817L34.4877 287.136C35.4972 286.649 36.1882 285.926 36.5608 284.965C36.9237 283.981 36.8354 282.812 36.2958 281.46C35.9681 280.639 35.6041 280.042 35.2037 279.67C34.7936 279.274 34.3641 279.039 33.9152 278.967C33.4421 278.904 32.9761 278.963 32.5173 279.147C31.9619 279.368 31.585 279.687 31.3867 280.102C31.1547 280.502 31.0263 280.987 31.0017 281.557C30.9674 282.102 30.9742 282.716 31.0219 283.396C31.0357 284.203 31.0471 285.038 31.056 285.902C31.0311 286.752 30.9435 287.585 30.7932 288.401C30.6091 289.202 30.2922 289.916 29.8427 290.543C29.369 291.18 28.6975 291.672 27.8281 292.019C27.1037 292.308 26.3697 292.433 25.6262 292.394C24.8586 292.364 24.1394 292.175 23.4685 291.827C22.7639 291.464 22.1343 290.974 21.5796 290.355C21.0152 289.713 20.5548 288.945 20.1983 288.051C19.7165 286.844 19.5532 285.733 19.7086 284.72C19.8543 283.682 20.2872 282.767 21.0072 281.976C21.6935 281.17 22.6114 280.524 23.7608 280.037L24.7582 282.537C23.7389 283.139 23.0938 283.803 22.8229 284.527C22.5181 285.236 22.5584 286.074 22.9439 287.04C23.3389 288.03 23.8598 288.704 24.5065 289.062C25.1531 289.419 25.8387 289.454 26.5632 289.165C27.0944 288.953 27.4641 288.581 27.6721 288.05C27.856 287.529 27.9724 286.909 28.0213 286.189C28.0364 285.456 28.0491 284.681 28.0595 283.865C28.0698 283.049 28.0898 282.257 28.1194 281.489C28.149 280.722 28.2558 280.007 28.4398 279.346C28.6239 278.685 28.9478 278.093 29.4118 277.572C29.8419 277.037 30.4796 276.6 31.3248 276.263C32.339 275.858 33.3409 275.739 34.3306 275.904C35.2864 276.054 36.1647 276.501 36.9656 277.246C37.7568 277.966 38.4125 278.978 38.9329 280.282C39.405 281.465 39.6649 282.537 39.7123 283.498C39.726 284.444 39.6022 285.291 39.3409 286.04C39.0554 286.797 38.6976 287.444 38.2674 287.98C37.8276 288.491 37.3614 288.901 36.8687 289.209C36.3759 289.518 35.9388 289.72 35.5573 289.817Z" fill="white"/>
<path d="M15.1453 272.616L12.0667 261.571L14.8843 260.786L17.9629 271.831L15.1453 272.616ZM9.14107 269.958L8.30335 266.952L31.9712 260.355L32.8089 263.361L9.14107 269.958Z" fill="white"/>
<path d="M9.48606 249.21L8.97668 246.131L28.215 242.948L28.7244 246.026L9.48606 249.21ZM10.8437 239.498C11.0602 240.806 11.5762 241.854 12.3917 242.641C13.1773 243.407 14.0871 243.968 15.121 244.324C16.1251 244.659 17.076 244.831 17.9736 244.84L15.7483 245.248C15.5175 245.286 15.1242 245.299 14.5685 245.285C14.0129 245.272 13.3782 245.179 12.6646 245.007C11.9254 244.84 11.2097 244.576 10.5177 244.216C9.79573 243.835 9.16801 243.306 8.63449 242.63C8.10097 241.954 7.74719 241.091 7.57315 240.039L10.8437 239.498Z" fill="white"/>
<path d="M26.3135 222.067C26.4069 223.729 26.0921 225.309 25.3691 226.808C24.6461 228.307 23.5573 229.553 22.1027 230.546C20.6208 231.515 18.8414 232.057 16.7647 232.174C14.688 232.291 12.872 231.95 11.3168 231.152C9.73411 230.33 8.48657 229.215 7.57416 227.808C6.66174 226.401 6.15883 224.867 6.06543 223.206C5.97202 221.544 6.30053 219.976 7.05095 218.502C7.79991 217.001 8.91538 215.767 10.3973 214.798C11.8533 213.831 13.6197 213.289 15.6964 213.172C17.7731 213.055 19.6021 213.395 21.1833 214.192C22.7385 214.99 23.9594 216.093 24.8459 217.501C25.7309 218.884 26.2201 220.406 26.3135 222.067ZM23.3931 222.231C23.3318 221.141 23.0016 220.131 22.4024 219.201C21.8033 218.271 20.9548 217.538 19.8569 217.001C18.7316 216.439 17.4031 216.201 15.8716 216.287C14.34 216.373 13.0595 216.758 12.0302 217.441C10.9735 218.099 10.1866 218.924 9.66952 219.917C9.15242 220.91 8.92452 221.951 8.98582 223.041C9.04711 224.132 9.39104 225.154 10.0176 226.108C10.6167 227.038 11.479 227.784 12.6043 228.346C13.7036 228.909 15.032 229.147 16.5896 229.059C18.1212 228.973 19.4153 228.601 20.472 227.942C21.5013 227.259 22.2608 226.41 22.7505 225.392C23.2402 224.375 23.4544 223.322 23.3931 222.231Z" fill="white"/>
<path d="M26.4778 192.112L9.05754e-05 197.095L0.532827 193.784L23.4947 189.538L23.346 190.462L2.82483 179.537L3.35757 176.226L26.2699 172.288L26.1212 173.212L5.64958 161.979L6.16992 158.744L29.761 171.704L29.2406 174.938L5.56438 178.714L5.70067 177.867L26.9982 188.877L26.4778 192.112Z" fill="white"/>
<path d="M27.9395 154.902L28.7122 152.081C29.886 152.618 30.8658 153.372 31.6514 154.342C32.4189 155.28 32.9364 156.392 33.2041 157.679C33.4536 158.933 33.3791 160.288 32.9807 161.742C32.4999 163.497 31.6535 164.964 30.4413 166.141C29.2041 167.312 27.7449 168.112 26.0638 168.541C24.3645 168.939 22.5745 168.88 20.6938 168.364C18.8131 167.849 17.2394 167 15.9728 165.818C14.7131 164.61 13.8458 163.2 13.371 161.587C12.8962 159.974 12.8957 158.303 13.3697 156.573C13.8711 154.742 14.7072 153.313 15.8782 152.286C17.0309 151.227 18.4796 150.613 20.2243 150.444C21.9507 150.243 23.9378 150.517 26.1854 151.268L22.2703 165.561C23.5334 165.772 24.7044 165.729 25.7833 165.432C26.8623 165.134 27.7887 164.606 28.5625 163.848C29.3113 163.082 29.8437 162.123 30.1596 160.969C30.5099 159.69 30.4793 158.523 30.0677 157.467C29.6379 156.378 28.9285 155.524 27.9395 154.902ZM16.2217 157.233C15.7958 158.787 15.89 160.215 16.5043 161.515C17.1186 162.816 18.155 163.855 19.6136 164.631L22.6323 153.61C20.9498 153.257 19.5483 153.453 18.4278 154.198C17.3142 154.917 16.5788 155.929 16.2217 157.233Z" fill="white"/>
<path d="M39.757 141.913C39.233 143.244 38.5019 144.213 37.5636 144.822C36.6012 145.421 35.5409 145.772 34.3826 145.874C33.2098 145.943 32.053 145.865 30.9124 145.639C29.7475 145.404 28.7055 145.106 27.7862 144.744C26.4799 144.229 25.2915 143.663 24.2212 143.046C23.1605 142.405 22.2851 141.683 21.5953 140.88C20.9054 140.078 20.4853 139.158 20.3349 138.12C20.1699 137.049 20.3541 135.837 20.8877 134.482C21.4879 132.958 22.4327 131.765 23.7221 130.904C25.0114 130.042 26.5032 129.554 28.1972 129.439C29.8913 129.323 31.6455 129.623 33.4599 130.338C35.2742 131.052 36.7569 132.041 37.9079 133.305C39.0347 134.559 39.7759 135.941 40.1316 137.45C40.4631 138.95 40.3382 140.438 39.757 141.913ZM36.7134 141.553C37.1516 140.44 37.2593 139.351 37.0364 138.285C36.7892 137.21 36.265 136.235 35.4637 135.36C34.6478 134.452 33.5987 133.746 32.3166 133.241C30.3812 132.478 28.5893 132.345 26.9407 132.842C25.2679 133.329 24.0743 134.479 23.3597 136.294C22.8833 137.503 22.7735 138.634 23.0301 139.685C23.2721 140.702 23.8201 141.617 24.6742 142.428C25.5136 143.206 26.5986 143.857 27.9291 144.381C29.1387 144.857 30.3277 145.102 31.4962 145.115C32.65 145.094 33.6865 144.804 34.6057 144.244C35.5249 143.684 36.2275 142.787 36.7134 141.553ZM11.5636 137.935L33.3359 146.51C33.7713 146.682 34.3377 146.947 35.0348 147.305C35.7415 147.639 36.3514 147.935 36.8646 148.193L35.8213 150.842L10.4203 140.838L11.5636 137.935Z" fill="white"/>
<path d="M35.433 95.1543C36.8525 93.0383 38.3208 91.456 39.8382 90.4075C41.3484 89.323 42.879 88.6747 44.43 88.4628C45.981 88.2509 47.513 88.3707 49.0261 88.8221C50.5391 89.2735 51.9974 89.9699 53.4009 90.9114C54.8044 91.8528 56.0055 92.9559 57.0042 94.2207C58.0029 95.4855 58.6948 96.9045 59.0797 98.4776C59.4791 100.029 59.4923 101.713 59.1193 103.529C58.7248 105.331 57.8468 107.246 56.4853 109.276L51.9011 116.11L30.8489 101.988L35.433 95.1543ZM51.2101 111.89L54.0562 107.647C55.2004 105.941 55.9044 104.378 56.168 102.958C56.4462 101.517 56.4138 100.212 56.071 99.0423C55.7066 97.8587 55.1255 96.8114 54.3277 95.9005C53.5443 94.968 52.656 94.1687 51.6628 93.5024C50.6696 92.8361 49.6038 92.3247 48.4655 91.9681C47.3416 91.5899 46.1845 91.4713 44.9943 91.6121C43.7825 91.7384 42.5733 92.2109 41.3667 93.0295C40.1746 93.8266 39.0064 95.078 37.8622 96.7837L35.0161 101.027L51.2101 111.89Z" fill="white"/>
<path d="M68.7897 82.9146L70.6711 80.675C71.5128 81.6537 72.0877 82.7479 72.3959 83.9575C72.7008 85.1305 72.7059 86.3573 72.4113 87.6378C72.1134 88.8817 71.4795 90.0809 70.5095 91.2356C69.3388 92.6291 67.9568 93.6074 66.3633 94.1703C64.7499 94.7165 63.0899 94.8331 61.3834 94.5201C59.6737 94.1705 58.0723 93.3685 56.5792 92.1142C55.0861 90.86 54.0115 89.4309 53.3554 87.8271C52.716 86.2033 52.5178 84.5597 52.7607 82.8962C53.0036 81.2326 53.7021 79.714 54.856 78.3404C56.0768 76.8871 57.4338 75.9387 58.927 75.4952C60.4169 75.0151 61.9897 75.0629 63.6452 75.6387C65.2976 76.1779 66.9878 77.2582 68.7158 78.8796L59.1833 90.227C60.2424 90.9469 61.3242 91.3973 62.4287 91.5781C63.5332 91.7589 64.5955 91.6666 65.6156 91.3011C66.6158 90.9189 67.5006 90.2699 68.2699 89.3541C69.1228 88.3389 69.5831 87.2654 69.6508 86.1338C69.7154 84.9656 69.4283 83.8925 68.7897 82.9146ZM57.1709 80.1322C56.134 81.3665 55.6227 82.7027 55.637 84.1409C55.6513 85.5791 56.1585 86.956 57.1587 88.2716L64.5087 79.5221C63.1279 78.498 61.773 78.0898 60.4439 78.2976C59.1315 78.4855 58.0405 79.097 57.1709 80.1322Z" fill="white"/>
<path d="M82.0611 74.5627L81.3854 75.2104L74.061 58.947L76.5104 56.599L84.6553 75.8036L82.5438 77.8277L63.7286 68.8517L66.1779 66.5037L82.0611 74.5627Z" fill="white"/>
<path d="M99.7776 55.1196L102.095 53.3345C102.707 54.4707 103.035 55.6625 103.077 56.9101C103.124 58.1212 102.866 59.3206 102.304 60.5084C101.747 61.6597 100.871 62.6955 99.6768 63.6158C98.2351 64.7266 96.6757 65.3864 94.9986 65.5953C93.3057 65.7836 91.6593 65.5422 90.0592 64.8713C88.464 64.1638 87.0713 63.0377 85.8812 61.493C84.6911 59.9483 83.9473 58.3223 83.6496 56.6152C83.3725 54.8923 83.5306 53.2443 84.1239 51.6713C84.7172 50.0983 85.7244 48.7644 87.1456 47.6695C88.6492 46.5112 90.1777 45.8751 91.7311 45.7614C93.2893 45.6113 94.8154 45.9946 96.3094 46.9114C97.8081 47.7917 99.2279 49.2086 100.569 51.1622L88.8288 60.2068C89.7093 61.1367 90.6697 61.8081 91.7099 62.2211C92.7501 62.6341 93.8076 62.7712 94.8823 62.6325C95.9411 62.4732 96.9443 62.0286 97.8917 61.2987C98.9421 60.4895 99.6215 59.5394 99.9298 58.4485C100.243 57.3212 100.192 56.2115 99.7776 55.1196ZM89.0234 49.9152C87.7464 50.899 86.961 52.0948 86.6672 53.5028C86.3734 54.9107 86.5742 56.3642 87.2696 57.8633L96.3218 50.8895C95.1922 49.5936 93.956 48.9049 92.6132 48.8235C91.291 48.7262 90.0944 49.0901 89.0234 49.9152Z" fill="white"/>
<path d="M99.993 29.8442L102.655 28.2172L116.892 51.5112L114.23 53.1382L99.993 29.8442Z" fill="white"/>
<path d="M133.544 43.1303C132.039 43.8402 130.456 44.1412 128.795 44.0334C127.134 43.9256 125.571 43.3839 124.104 42.4083C122.65 41.398 121.48 39.9523 120.592 38.0711C119.705 36.1898 119.339 34.3787 119.496 32.6377C119.664 30.8621 120.229 29.2875 121.191 27.9138C122.153 26.5402 123.387 25.4984 124.892 24.7885C126.397 24.0786 127.973 23.7948 129.622 23.9372C131.293 24.0686 132.856 24.6393 134.31 25.6496C135.753 26.6364 136.918 28.0703 137.806 29.9515C138.693 31.8328 139.064 33.6556 138.919 35.4202C138.763 37.1612 138.198 38.7067 137.225 40.0569C136.276 41.3959 135.049 42.4204 133.544 43.1303ZM132.296 40.4848C133.283 40.019 134.096 39.3339 134.733 38.4297C135.37 37.5255 135.732 36.4637 135.818 35.2445C135.916 33.9906 135.638 32.67 134.984 31.2826C134.329 29.8952 133.492 28.8526 132.473 28.1547C131.467 27.4221 130.406 27.0024 129.292 26.8955C128.178 26.7886 127.127 26.9681 126.14 27.4339C125.152 27.8998 124.333 28.6022 123.684 29.541C123.047 30.4452 122.679 31.5243 122.58 32.7781C122.471 34.0085 122.749 35.3291 123.414 36.74C124.069 38.1274 124.899 39.1873 125.906 39.9198C126.925 40.6178 127.998 41.0029 129.124 41.0752C130.251 41.1475 131.308 40.9507 132.296 40.4848Z" fill="white"/>
<path d="M153.266 35.2264C151.914 35.6937 150.702 35.7689 149.63 35.452C148.549 35.1105 147.593 34.5333 146.761 33.7203C145.946 32.8743 145.253 31.9447 144.683 30.9315C144.104 29.8937 143.653 28.9079 143.33 27.9742C142.871 26.6473 142.528 25.3766 142.301 24.1622C142.098 22.9393 142.077 21.8049 142.238 20.7588C142.399 19.7128 142.825 18.7953 143.515 18.0065C144.221 17.1846 145.262 16.5357 146.638 16.0599C148.113 15.5501 149.596 15.5047 151.089 15.9238C152.582 16.343 153.935 17.1542 155.149 18.3576C156.388 19.5524 157.326 21.0713 157.963 22.9142C158.6 24.7572 158.801 26.531 158.565 28.2357C158.321 29.9158 157.729 31.386 156.789 32.6463C155.865 33.8735 154.691 34.7335 153.266 35.2264ZM151.56 32.68C152.69 32.2892 153.588 31.6625 154.252 30.7999C154.933 29.9043 155.345 28.8678 155.488 27.6904C155.623 26.4884 155.465 25.2362 155.014 23.9339C154.335 21.9681 153.27 20.5205 151.821 19.5911C150.363 18.6371 148.713 18.4788 146.87 19.1161C145.788 19.4899 144.932 20.1162 144.301 20.9948C143.661 21.8489 143.286 22.8726 143.176 24.0661C143.057 25.235 143.231 26.4952 143.699 27.8467C144.124 29.0753 144.711 30.1377 145.461 31.0338C146.227 31.8968 147.122 32.4953 148.145 32.8292C149.169 33.1631 150.307 33.1134 151.56 32.68ZM137.551 19.6148L140.389 18.6334L141.838 22.4654L149.421 44.3962L146.473 45.4158L137.551 19.6148Z" fill="white"/>
<path d="M175.766 22.3064L178.618 21.6536C178.699 22.9419 178.498 24.1615 178.015 25.3124C177.551 26.4321 176.816 27.414 175.809 28.2581C174.821 29.071 173.593 29.6457 172.123 29.9823C170.349 30.3885 168.656 30.3359 167.045 29.8245C165.429 29.2877 164.034 28.3801 162.861 27.1017C161.708 25.7921 160.913 24.1869 160.478 22.286C160.043 20.3852 160.047 18.5972 160.49 16.922C160.959 15.241 161.792 13.8101 162.988 12.6292C164.185 11.4484 165.658 10.6578 167.406 10.2574C169.256 9.83374 170.911 9.89504 172.37 10.4413C173.848 10.9563 175.074 11.9426 176.048 13.4C177.041 14.8262 177.738 16.707 178.14 19.0424L163.694 22.35C164.105 23.5629 164.696 24.5743 165.469 25.3844C166.241 26.1945 167.144 26.7612 168.178 27.0845C169.207 27.3825 170.304 27.398 171.47 27.1311C172.762 26.8351 173.777 26.2561 174.513 25.3941C175.269 24.5009 175.686 23.4717 175.766 22.3064ZM168.173 13.0825C166.602 13.4422 165.388 14.2002 164.533 15.3563C163.677 16.5124 163.252 17.9168 163.257 19.5693L174.396 17.019C173.911 15.3695 173.076 14.227 171.891 13.5916C170.73 12.9504 169.491 12.7807 168.173 13.0825Z" fill="white"/>
<path d="M185.126 7.45572L188.224 7.09074L190.506 26.4569L187.407 26.8218L185.126 7.45572ZM194.764 9.26571C193.447 9.42082 192.376 9.88729 191.551 10.6651C190.75 11.414 190.147 12.2966 189.743 13.3129C189.362 14.3002 189.145 15.242 189.094 16.1382L188.79 13.8963C188.763 13.6639 188.769 13.2705 188.809 12.716C188.848 12.1616 188.97 11.532 189.175 10.8272C189.377 10.0966 189.674 9.39401 190.066 8.71955C190.48 8.01622 191.038 7.41388 191.738 6.91254C192.438 6.41119 193.317 6.09817 194.376 5.97347L194.764 9.26571Z" fill="white"/>
</svg>
